<mxfile host="app.diagrams.net" agent="Mozilla/5.0 (Macintosh; Intel Mac OS X 10_15_7) AppleWebKit/537.36 (KHTML, like Gecko) Chrome/131.0.0.0 Safari/537.36" version="26.0.4">
  <diagram id="Ht1M8jgEwFfnCIfOTk4-" name="Page-1">
    <mxGraphModel dx="4765" dy="3406" grid="0" gridSize="10" guides="1" tooltips="1" connect="1" arrows="1" fold="1" page="1" pageScale="1" pageWidth="1654" pageHeight="1169" background="#FFFFFF" math="0" shadow="0">
      <root>
        <mxCell id="0" />
        <mxCell id="1" parent="0" />
        <mxCell id="mr_CGQu-zEkENaeuJOmH-63" value="" style="group" vertex="1" connectable="0" parent="1">
          <mxGeometry x="-3006" y="-2245" width="1050" height="984" as="geometry" />
        </mxCell>
        <mxCell id="mr_CGQu-zEkENaeuJOmH-57" value="" style="fillColor=none;strokeColor=#5E5E5E;dashed=1;verticalAlign=top;fontStyle=0;fontColor=#5A6C86;whiteSpace=wrap;html=1;" vertex="1" parent="mr_CGQu-zEkENaeuJOmH-63">
          <mxGeometry x="330" y="504" width="680" height="340" as="geometry" />
        </mxCell>
        <mxCell id="mr_CGQu-zEkENaeuJOmH-25" style="edgeStyle=orthogonalEdgeStyle;rounded=0;orthogonalLoop=1;jettySize=auto;html=1;exitX=1;exitY=0.5;exitDx=0;exitDy=0;strokeColor=#5E5E5E;" edge="1" parent="mr_CGQu-zEkENaeuJOmH-63" source="mr_CGQu-zEkENaeuJOmH-3" target="mr_CGQu-zEkENaeuJOmH-9">
          <mxGeometry relative="1" as="geometry">
            <Array as="points">
              <mxPoint x="200" y="359" />
              <mxPoint x="200" y="442" />
            </Array>
          </mxGeometry>
        </mxCell>
        <mxCell id="mr_CGQu-zEkENaeuJOmH-3" value="" style="rounded=1;whiteSpace=wrap;html=1;fillColor=none;strokeColor=#5E5E5E;" vertex="1" parent="mr_CGQu-zEkENaeuJOmH-63">
          <mxGeometry x="35" y="304" width="120" height="110" as="geometry" />
        </mxCell>
        <mxCell id="rJDtlgSixLLEbbWDWp3H-12" value="Athena" style="sketch=0;points=[[0,0,0],[0.25,0,0],[0.5,0,0],[0.75,0,0],[1,0,0],[0,1,0],[0.25,1,0],[0.5,1,0],[0.75,1,0],[1,1,0],[0,0.25,0],[0,0.5,0],[0,0.75,0],[1,0.25,0],[1,0.5,0],[1,0.75,0]];outlineConnect=0;fontColor=#232F3E;fillColor=#8C4FFF;strokeColor=#ffffff;dashed=0;verticalLabelPosition=bottom;verticalAlign=top;align=center;html=1;fontSize=12;fontStyle=0;aspect=fixed;shape=mxgraph.aws4.resourceIcon;resIcon=mxgraph.aws4.athena;" parent="mr_CGQu-zEkENaeuJOmH-63" vertex="1">
          <mxGeometry x="630" y="870.9999999999999" width="56" height="56" as="geometry" />
        </mxCell>
        <mxCell id="rJDtlgSixLLEbbWDWp3H-64" value="1" style="rounded=1;whiteSpace=wrap;html=1;fillColor=#007CBD;strokeColor=none;fontColor=#FFFFFF;fontStyle=1;fontSize=22;aspect=fixed;" parent="mr_CGQu-zEkENaeuJOmH-63" vertex="1">
          <mxGeometry x="130" y="104" width="30" height="28.5" as="geometry" />
        </mxCell>
        <mxCell id="rJDtlgSixLLEbbWDWp3H-65" value="2" style="rounded=1;whiteSpace=wrap;html=1;fillColor=#007CBD;strokeColor=none;fontColor=#FFFFFF;fontStyle=1;fontSize=22;aspect=fixed;" parent="mr_CGQu-zEkENaeuJOmH-63" vertex="1">
          <mxGeometry x="330" y="205.5" width="30" height="28.5" as="geometry" />
        </mxCell>
        <mxCell id="rJDtlgSixLLEbbWDWp3H-66" value="8" style="rounded=1;whiteSpace=wrap;html=1;fillColor=#007CBD;strokeColor=none;fontColor=#FFFFFF;fontStyle=1;fontSize=22;aspect=fixed;" parent="mr_CGQu-zEkENaeuJOmH-63" vertex="1">
          <mxGeometry x="690" y="854" width="30" height="28.5" as="geometry" />
        </mxCell>
        <mxCell id="rJDtlgSixLLEbbWDWp3H-67" value="4" style="rounded=1;whiteSpace=wrap;html=1;fillColor=#007CBD;strokeColor=none;fontColor=#FFFFFF;fontStyle=1;fontSize=22;aspect=fixed;" parent="mr_CGQu-zEkENaeuJOmH-63" vertex="1">
          <mxGeometry x="570" y="644" width="30" height="28.5" as="geometry" />
        </mxCell>
        <mxCell id="rJDtlgSixLLEbbWDWp3H-68" value="5" style="rounded=1;whiteSpace=wrap;html=1;fillColor=#007CBD;strokeColor=none;fontColor=#FFFFFF;fontStyle=1;fontSize=22;aspect=fixed;" parent="mr_CGQu-zEkENaeuJOmH-63" vertex="1">
          <mxGeometry x="700" y="644" width="30" height="28.5" as="geometry" />
        </mxCell>
        <mxCell id="mr_CGQu-zEkENaeuJOmH-10" value="&lt;font style=&quot;&quot;&gt;Glue&lt;/font&gt;&lt;div&gt;&lt;font style=&quot;&quot;&gt;Workflows&lt;/font&gt;&lt;/div&gt;" style="sketch=0;points=[[0,0,0],[0.25,0,0],[0.5,0,0],[0.75,0,0],[1,0,0],[0,1,0],[0.25,1,0],[0.5,1,0],[0.75,1,0],[1,1,0],[0,0.25,0],[0,0.5,0],[0,0.75,0],[1,0.25,0],[1,0.5,0],[1,0.75,0]];outlineConnect=0;fontColor=#232F3E;fillColor=#8C4FFF;strokeColor=#ffffff;dashed=0;verticalLabelPosition=middle;verticalAlign=middle;align=left;html=1;fontSize=12;fontStyle=0;aspect=fixed;shape=mxgraph.aws4.resourceIcon;resIcon=mxgraph.aws4.glue;labelPosition=right;" vertex="1" parent="mr_CGQu-zEkENaeuJOmH-63">
          <mxGeometry x="330" y="504" width="44" height="44" as="geometry" />
        </mxCell>
        <mxCell id="dZuX1vutf1IF2mnfki8U-3" value="&lt;font color=&quot;#5e5e5e&quot;&gt;AWS Cloud&lt;/font&gt;" style="points=[[0,0],[0.25,0],[0.5,0],[0.75,0],[1,0],[1,0.25],[1,0.5],[1,0.75],[1,1],[0.75,1],[0.5,1],[0.25,1],[0,1],[0,0.75],[0,0.5],[0,0.25]];outlineConnect=0;gradientColor=none;html=1;whiteSpace=wrap;fontSize=12;fontStyle=0;container=0;pointerEvents=0;collapsible=0;recursiveResize=0;shape=mxgraph.aws4.group;grIcon=mxgraph.aws4.group_aws_cloud_alt;strokeColor=#5E5E5E;fillColor=none;verticalAlign=top;align=left;spacingLeft=30;fontColor=#232F3E;dashed=0;movable=1;resizable=1;rotatable=1;deletable=1;editable=1;locked=0;connectable=1;" parent="mr_CGQu-zEkENaeuJOmH-63" vertex="1">
          <mxGeometry x="180" y="104" width="850" height="860" as="geometry" />
        </mxCell>
        <mxCell id="mr_CGQu-zEkENaeuJOmH-9" value="&lt;font style=&quot;color: rgb(35, 47, 62);&quot;&gt;S3 Bronze&lt;/font&gt;" style="outlineConnect=0;fontColor=#232F3E;gradientColor=#60A337;gradientDirection=north;fillColor=#277116;strokeColor=#ffffff;dashed=0;verticalLabelPosition=bottom;verticalAlign=top;align=center;html=1;fontSize=12;fontStyle=0;aspect=fixed;shape=mxgraph.aws4.resourceIcon;resIcon=mxgraph.aws4.s3;labelBackgroundColor=none;labelPosition=center;" vertex="1" parent="mr_CGQu-zEkENaeuJOmH-63">
          <mxGeometry x="260" y="414" width="56" height="56" as="geometry" />
        </mxCell>
        <mxCell id="mr_CGQu-zEkENaeuJOmH-8" style="edgeStyle=orthogonalEdgeStyle;rounded=0;orthogonalLoop=1;jettySize=auto;html=1;strokeColor=#5E5E5E;sourcePerimeterSpacing=42;" edge="1" parent="mr_CGQu-zEkENaeuJOmH-63" source="mr_CGQu-zEkENaeuJOmH-1" target="mr_CGQu-zEkENaeuJOmH-7">
          <mxGeometry relative="1" as="geometry" />
        </mxCell>
        <mxCell id="mr_CGQu-zEkENaeuJOmH-1" value="&lt;font style=&quot;color: rgb(35, 47, 62);&quot;&gt;AWS Cloud Development&lt;/font&gt;&lt;div&gt;&lt;font style=&quot;color: rgb(35, 47, 62);&quot;&gt;Kit (AWS CDK)&lt;/font&gt;&lt;/div&gt;" style="sketch=0;points=[[0,0,0],[0.25,0,0],[0.5,0,0],[0.75,0,0],[1,0,0],[0,1,0],[0.25,1,0],[0.5,1,0],[0.75,1,0],[1,1,0],[0,0.25,0],[0,0.5,0],[0,0.75,0],[1,0.25,0],[1,0.5,0],[1,0.75,0]];outlineConnect=0;fontColor=#232F3E;fillColor=#C925D1;strokeColor=#ffffff;dashed=0;verticalLabelPosition=bottom;verticalAlign=top;align=center;html=1;fontSize=12;fontStyle=0;aspect=fixed;shape=mxgraph.aws4.resourceIcon;resIcon=mxgraph.aws4.cloud_development_kit;" vertex="1" parent="mr_CGQu-zEkENaeuJOmH-63">
          <mxGeometry x="67" y="124" width="56" height="56" as="geometry" />
        </mxCell>
        <mxCell id="mr_CGQu-zEkENaeuJOmH-7" value="CDK Deploy Assets" style="text;html=1;align=center;verticalAlign=middle;whiteSpace=wrap;rounded=0;fontColor=#232F3E;" vertex="1" parent="mr_CGQu-zEkENaeuJOmH-63">
          <mxGeometry x="30" y="274" width="130" height="30" as="geometry" />
        </mxCell>
        <mxCell id="mr_CGQu-zEkENaeuJOmH-24" style="edgeStyle=orthogonalEdgeStyle;rounded=0;orthogonalLoop=1;jettySize=auto;html=1;entryX=1;entryY=0.5;entryDx=0;entryDy=0;startArrow=classic;startFill=1;endArrow=none;endFill=0;strokeColor=#5E5E5E;" edge="1" parent="mr_CGQu-zEkENaeuJOmH-63" source="F3FmpkAqIBPM40U7T1jB-10" target="mr_CGQu-zEkENaeuJOmH-3">
          <mxGeometry relative="1" as="geometry">
            <Array as="points">
              <mxPoint x="200" y="262" />
              <mxPoint x="200" y="359" />
            </Array>
          </mxGeometry>
        </mxCell>
        <mxCell id="F3FmpkAqIBPM40U7T1jB-10" value="&lt;font style=&quot;color: rgb(35, 47, 62);&quot;&gt;S3 Resources&lt;/font&gt;" style="outlineConnect=0;fontColor=#232F3E;gradientColor=#60A337;gradientDirection=north;fillColor=#277116;strokeColor=#ffffff;dashed=0;verticalLabelPosition=bottom;verticalAlign=top;align=center;html=1;fontSize=12;fontStyle=0;aspect=fixed;shape=mxgraph.aws4.resourceIcon;resIcon=mxgraph.aws4.s3;labelBackgroundColor=none;labelPosition=center;" parent="mr_CGQu-zEkENaeuJOmH-63" vertex="1">
          <mxGeometry x="260" y="234" width="56" height="56" as="geometry" />
        </mxCell>
        <mxCell id="mr_CGQu-zEkENaeuJOmH-2" value="&lt;font style=&quot;color: rgb(35, 47, 62);&quot;&gt;ETL Scripts&lt;/font&gt;&lt;div&gt;&lt;font style=&quot;color: rgb(35, 47, 62);&quot;&gt;and Data&lt;/font&gt;&lt;/div&gt;" style="sketch=0;pointerEvents=1;shadow=0;dashed=0;html=1;strokeColor=none;fillColor=#505050;labelPosition=center;verticalLabelPosition=bottom;verticalAlign=top;outlineConnect=0;align=center;shape=mxgraph.office.concepts.script;fontColor=#232F3E;" vertex="1" parent="mr_CGQu-zEkENaeuJOmH-63">
          <mxGeometry x="68.5" y="320" width="53" height="49" as="geometry" />
        </mxCell>
        <mxCell id="mr_CGQu-zEkENaeuJOmH-27" style="edgeStyle=orthogonalEdgeStyle;rounded=0;orthogonalLoop=1;jettySize=auto;html=1;strokeColor=#5E5E5E;startArrow=classic;startFill=1;" edge="1" parent="mr_CGQu-zEkENaeuJOmH-63" source="mr_CGQu-zEkENaeuJOmH-26" target="mr_CGQu-zEkENaeuJOmH-9">
          <mxGeometry relative="1" as="geometry" />
        </mxCell>
        <mxCell id="mr_CGQu-zEkENaeuJOmH-40" style="edgeStyle=orthogonalEdgeStyle;rounded=0;orthogonalLoop=1;jettySize=auto;html=1;strokeColor=#5E5E5E;" edge="1" parent="mr_CGQu-zEkENaeuJOmH-63" source="mr_CGQu-zEkENaeuJOmH-26" target="mr_CGQu-zEkENaeuJOmH-28">
          <mxGeometry relative="1" as="geometry">
            <Array as="points">
              <mxPoint x="388" y="774" />
            </Array>
          </mxGeometry>
        </mxCell>
        <mxCell id="mr_CGQu-zEkENaeuJOmH-26" value="Crawler" style="sketch=0;outlineConnect=0;fontColor=#232F3E;gradientColor=none;fillColor=#8C4FFF;strokeColor=none;dashed=0;verticalLabelPosition=bottom;verticalAlign=top;align=center;html=1;fontSize=12;fontStyle=0;aspect=fixed;pointerEvents=1;shape=mxgraph.aws4.glue_crawlers;" vertex="1" parent="mr_CGQu-zEkENaeuJOmH-63">
          <mxGeometry x="360" y="594" width="56" height="56" as="geometry" />
        </mxCell>
        <mxCell id="mr_CGQu-zEkENaeuJOmH-28" value="AWS Glue&lt;div&gt;Data Catalog&lt;/div&gt;" style="sketch=0;outlineConnect=0;fontColor=#232F3E;gradientColor=none;fillColor=#8C4FFF;strokeColor=none;dashed=0;verticalLabelPosition=bottom;verticalAlign=top;align=center;html=1;fontSize=12;fontStyle=0;aspect=fixed;pointerEvents=1;shape=mxgraph.aws4.glue_data_catalog;" vertex="1" parent="mr_CGQu-zEkENaeuJOmH-63">
          <mxGeometry x="632.1599999999999" y="734" width="51.69" height="56" as="geometry" />
        </mxCell>
        <mxCell id="mr_CGQu-zEkENaeuJOmH-37" style="edgeStyle=orthogonalEdgeStyle;rounded=0;orthogonalLoop=1;jettySize=auto;html=1;strokeColor=#5E5E5E;" edge="1" parent="mr_CGQu-zEkENaeuJOmH-63" source="mr_CGQu-zEkENaeuJOmH-29" target="mr_CGQu-zEkENaeuJOmH-35">
          <mxGeometry relative="1" as="geometry" />
        </mxCell>
        <mxCell id="mr_CGQu-zEkENaeuJOmH-38" style="edgeStyle=orthogonalEdgeStyle;rounded=0;orthogonalLoop=1;jettySize=auto;html=1;strokeColor=#5E5E5E;startArrow=classic;startFill=1;" edge="1" parent="mr_CGQu-zEkENaeuJOmH-63" source="mr_CGQu-zEkENaeuJOmH-29" target="mr_CGQu-zEkENaeuJOmH-28">
          <mxGeometry relative="1" as="geometry">
            <Array as="points">
              <mxPoint x="518" y="762" />
            </Array>
          </mxGeometry>
        </mxCell>
        <mxCell id="mr_CGQu-zEkENaeuJOmH-45" style="edgeStyle=orthogonalEdgeStyle;rounded=0;orthogonalLoop=1;jettySize=auto;html=1;strokeColor=#5E5E5E;" edge="1" parent="mr_CGQu-zEkENaeuJOmH-63" source="mr_CGQu-zEkENaeuJOmH-29" target="mr_CGQu-zEkENaeuJOmH-34">
          <mxGeometry relative="1" as="geometry" />
        </mxCell>
        <mxCell id="mr_CGQu-zEkENaeuJOmH-29" value="Glue Job&lt;div&gt;Process Bronze&lt;div&gt;Data&lt;/div&gt;&lt;/div&gt;" style="sketch=0;points=[[0,0,0],[0.25,0,0],[0.5,0,0],[0.75,0,0],[1,0,0],[0,1,0],[0.25,1,0],[0.5,1,0],[0.75,1,0],[1,1,0],[0,0.25,0],[0,0.5,0],[0,0.75,0],[1,0.25,0],[1,0.5,0],[1,0.75,0]];outlineConnect=0;fontColor=#232F3E;fillColor=#8C4FFF;strokeColor=#ffffff;dashed=0;verticalLabelPosition=bottom;verticalAlign=top;align=center;html=1;fontSize=12;fontStyle=0;aspect=fixed;shape=mxgraph.aws4.resourceIcon;resIcon=mxgraph.aws4.glue;" vertex="1" parent="mr_CGQu-zEkENaeuJOmH-63">
          <mxGeometry x="490" y="594" width="56" height="56" as="geometry" />
        </mxCell>
        <mxCell id="mr_CGQu-zEkENaeuJOmH-30" style="edgeStyle=orthogonalEdgeStyle;rounded=0;orthogonalLoop=1;jettySize=auto;html=1;entryX=0;entryY=0.5;entryDx=0;entryDy=0;entryPerimeter=0;strokeColor=#5E5E5E;" edge="1" parent="mr_CGQu-zEkENaeuJOmH-63" source="mr_CGQu-zEkENaeuJOmH-26" target="mr_CGQu-zEkENaeuJOmH-29">
          <mxGeometry relative="1" as="geometry" />
        </mxCell>
        <mxCell id="mr_CGQu-zEkENaeuJOmH-36" style="edgeStyle=orthogonalEdgeStyle;rounded=0;orthogonalLoop=1;jettySize=auto;html=1;strokeColor=#5E5E5E;startArrow=classic;startFill=1;" edge="1" parent="mr_CGQu-zEkENaeuJOmH-63" source="mr_CGQu-zEkENaeuJOmH-34" target="mr_CGQu-zEkENaeuJOmH-35">
          <mxGeometry relative="1" as="geometry" />
        </mxCell>
        <mxCell id="mr_CGQu-zEkENaeuJOmH-34" value="&lt;font style=&quot;color: rgb(35, 47, 62);&quot;&gt;S3 Silver&lt;/font&gt;" style="outlineConnect=0;fontColor=#232F3E;gradientColor=#60A337;gradientDirection=north;fillColor=#277116;strokeColor=#ffffff;dashed=0;verticalLabelPosition=bottom;verticalAlign=top;align=center;html=1;fontSize=12;fontStyle=0;aspect=fixed;shape=mxgraph.aws4.resourceIcon;resIcon=mxgraph.aws4.s3;labelBackgroundColor=none;labelPosition=center;" vertex="1" parent="mr_CGQu-zEkENaeuJOmH-63">
          <mxGeometry x="490" y="414" width="56" height="56" as="geometry" />
        </mxCell>
        <mxCell id="mr_CGQu-zEkENaeuJOmH-39" style="edgeStyle=orthogonalEdgeStyle;rounded=0;orthogonalLoop=1;jettySize=auto;html=1;strokeColor=#5E5E5E;" edge="1" parent="mr_CGQu-zEkENaeuJOmH-63" source="mr_CGQu-zEkENaeuJOmH-35" target="mr_CGQu-zEkENaeuJOmH-28">
          <mxGeometry relative="1" as="geometry" />
        </mxCell>
        <mxCell id="mr_CGQu-zEkENaeuJOmH-35" value="Crawler" style="sketch=0;outlineConnect=0;fontColor=#232F3E;gradientColor=none;fillColor=#8C4FFF;strokeColor=none;dashed=0;verticalLabelPosition=bottom;verticalAlign=top;align=center;html=1;fontSize=12;fontStyle=0;aspect=fixed;pointerEvents=1;shape=mxgraph.aws4.glue_crawlers;" vertex="1" parent="mr_CGQu-zEkENaeuJOmH-63">
          <mxGeometry x="630" y="594" width="56" height="56" as="geometry" />
        </mxCell>
        <mxCell id="mr_CGQu-zEkENaeuJOmH-43" style="edgeStyle=orthogonalEdgeStyle;rounded=0;orthogonalLoop=1;jettySize=auto;html=1;startArrow=classic;startFill=1;strokeColor=#5E5E5E;" edge="1" parent="mr_CGQu-zEkENaeuJOmH-63" source="mr_CGQu-zEkENaeuJOmH-41" target="mr_CGQu-zEkENaeuJOmH-28">
          <mxGeometry relative="1" as="geometry">
            <Array as="points">
              <mxPoint x="798" y="764" />
            </Array>
          </mxGeometry>
        </mxCell>
        <mxCell id="mr_CGQu-zEkENaeuJOmH-46" style="edgeStyle=orthogonalEdgeStyle;rounded=0;orthogonalLoop=1;jettySize=auto;html=1;strokeColor=#5E5E5E;" edge="1" parent="mr_CGQu-zEkENaeuJOmH-63" source="mr_CGQu-zEkENaeuJOmH-41" target="mr_CGQu-zEkENaeuJOmH-44">
          <mxGeometry relative="1" as="geometry" />
        </mxCell>
        <mxCell id="mr_CGQu-zEkENaeuJOmH-48" style="edgeStyle=orthogonalEdgeStyle;rounded=0;orthogonalLoop=1;jettySize=auto;html=1;strokeColor=#5E5E5E;" edge="1" parent="mr_CGQu-zEkENaeuJOmH-63" source="mr_CGQu-zEkENaeuJOmH-41" target="mr_CGQu-zEkENaeuJOmH-47">
          <mxGeometry relative="1" as="geometry" />
        </mxCell>
        <mxCell id="mr_CGQu-zEkENaeuJOmH-41" value="Glue Job&lt;div&gt;Process Silver&lt;div&gt;Data&lt;/div&gt;&lt;/div&gt;" style="sketch=0;points=[[0,0,0],[0.25,0,0],[0.5,0,0],[0.75,0,0],[1,0,0],[0,1,0],[0.25,1,0],[0.5,1,0],[0.75,1,0],[1,1,0],[0,0.25,0],[0,0.5,0],[0,0.75,0],[1,0.25,0],[1,0.5,0],[1,0.75,0]];outlineConnect=0;fontColor=#232F3E;fillColor=#8C4FFF;strokeColor=#ffffff;dashed=0;verticalLabelPosition=bottom;verticalAlign=top;align=center;html=1;fontSize=12;fontStyle=0;aspect=fixed;shape=mxgraph.aws4.resourceIcon;resIcon=mxgraph.aws4.glue;" vertex="1" parent="mr_CGQu-zEkENaeuJOmH-63">
          <mxGeometry x="770" y="594" width="56" height="56" as="geometry" />
        </mxCell>
        <mxCell id="mr_CGQu-zEkENaeuJOmH-42" style="edgeStyle=orthogonalEdgeStyle;rounded=0;orthogonalLoop=1;jettySize=auto;html=1;entryX=0;entryY=0.5;entryDx=0;entryDy=0;entryPerimeter=0;strokeColor=#5E5E5E;" edge="1" parent="mr_CGQu-zEkENaeuJOmH-63" source="mr_CGQu-zEkENaeuJOmH-35" target="mr_CGQu-zEkENaeuJOmH-41">
          <mxGeometry relative="1" as="geometry" />
        </mxCell>
        <mxCell id="mr_CGQu-zEkENaeuJOmH-44" value="&lt;font style=&quot;color: rgb(35, 47, 62);&quot;&gt;S3 Gold&lt;/font&gt;" style="outlineConnect=0;fontColor=#232F3E;gradientColor=#60A337;gradientDirection=north;fillColor=#277116;strokeColor=#ffffff;dashed=0;verticalLabelPosition=bottom;verticalAlign=top;align=center;html=1;fontSize=12;fontStyle=0;aspect=fixed;shape=mxgraph.aws4.resourceIcon;resIcon=mxgraph.aws4.s3;labelBackgroundColor=none;labelPosition=center;" vertex="1" parent="mr_CGQu-zEkENaeuJOmH-63">
          <mxGeometry x="770" y="414" width="56" height="56" as="geometry" />
        </mxCell>
        <mxCell id="mr_CGQu-zEkENaeuJOmH-49" style="edgeStyle=orthogonalEdgeStyle;rounded=0;orthogonalLoop=1;jettySize=auto;html=1;strokeColor=#5E5E5E;startArrow=classic;startFill=1;" edge="1" parent="mr_CGQu-zEkENaeuJOmH-63" source="mr_CGQu-zEkENaeuJOmH-47" target="mr_CGQu-zEkENaeuJOmH-44">
          <mxGeometry relative="1" as="geometry">
            <Array as="points">
              <mxPoint x="930" y="442" />
            </Array>
          </mxGeometry>
        </mxCell>
        <mxCell id="mr_CGQu-zEkENaeuJOmH-50" style="edgeStyle=orthogonalEdgeStyle;rounded=0;orthogonalLoop=1;jettySize=auto;html=1;strokeColor=#5E5E5E;" edge="1" parent="mr_CGQu-zEkENaeuJOmH-63" source="mr_CGQu-zEkENaeuJOmH-47" target="mr_CGQu-zEkENaeuJOmH-28">
          <mxGeometry relative="1" as="geometry">
            <Array as="points">
              <mxPoint x="928" y="774" />
            </Array>
          </mxGeometry>
        </mxCell>
        <mxCell id="mr_CGQu-zEkENaeuJOmH-47" value="Crawler" style="sketch=0;outlineConnect=0;fontColor=#232F3E;gradientColor=none;fillColor=#8C4FFF;strokeColor=none;dashed=0;verticalLabelPosition=bottom;verticalAlign=top;align=center;html=1;fontSize=12;fontStyle=0;aspect=fixed;pointerEvents=1;shape=mxgraph.aws4.glue_crawlers;" vertex="1" parent="mr_CGQu-zEkENaeuJOmH-63">
          <mxGeometry x="900" y="594" width="56" height="56" as="geometry" />
        </mxCell>
        <mxCell id="mr_CGQu-zEkENaeuJOmH-51" style="edgeStyle=orthogonalEdgeStyle;rounded=0;orthogonalLoop=1;jettySize=auto;html=1;entryX=0.5;entryY=0;entryDx=0;entryDy=0;entryPerimeter=0;strokeColor=#5E5E5E;startArrow=classic;startFill=1;" edge="1" parent="mr_CGQu-zEkENaeuJOmH-63" source="mr_CGQu-zEkENaeuJOmH-28" target="rJDtlgSixLLEbbWDWp3H-12">
          <mxGeometry relative="1" as="geometry" />
        </mxCell>
        <mxCell id="mr_CGQu-zEkENaeuJOmH-52" value="" style="sketch=0;outlineConnect=0;fontColor=#232F3E;gradientColor=none;fillColor=#DD344C;strokeColor=none;dashed=0;verticalLabelPosition=bottom;verticalAlign=top;align=center;html=1;fontSize=12;fontStyle=0;aspect=fixed;pointerEvents=1;shape=mxgraph.aws4.role;" vertex="1" parent="mr_CGQu-zEkENaeuJOmH-63">
          <mxGeometry x="400" y="564" width="35.45" height="20" as="geometry" />
        </mxCell>
        <mxCell id="mr_CGQu-zEkENaeuJOmH-53" value="" style="sketch=0;outlineConnect=0;fontColor=#232F3E;gradientColor=none;fillColor=#DD344C;strokeColor=none;dashed=0;verticalLabelPosition=bottom;verticalAlign=top;align=center;html=1;fontSize=12;fontStyle=0;aspect=fixed;pointerEvents=1;shape=mxgraph.aws4.role;" vertex="1" parent="mr_CGQu-zEkENaeuJOmH-63">
          <mxGeometry x="540" y="564" width="35.45" height="20" as="geometry" />
        </mxCell>
        <mxCell id="mr_CGQu-zEkENaeuJOmH-54" value="" style="sketch=0;outlineConnect=0;fontColor=#232F3E;gradientColor=none;fillColor=#DD344C;strokeColor=none;dashed=0;verticalLabelPosition=bottom;verticalAlign=top;align=center;html=1;fontSize=12;fontStyle=0;aspect=fixed;pointerEvents=1;shape=mxgraph.aws4.role;" vertex="1" parent="mr_CGQu-zEkENaeuJOmH-63">
          <mxGeometry x="680" y="564" width="35.45" height="20" as="geometry" />
        </mxCell>
        <mxCell id="mr_CGQu-zEkENaeuJOmH-55" value="" style="sketch=0;outlineConnect=0;fontColor=#232F3E;gradientColor=none;fillColor=#DD344C;strokeColor=none;dashed=0;verticalLabelPosition=bottom;verticalAlign=top;align=center;html=1;fontSize=12;fontStyle=0;aspect=fixed;pointerEvents=1;shape=mxgraph.aws4.role;" vertex="1" parent="mr_CGQu-zEkENaeuJOmH-63">
          <mxGeometry x="820" y="564" width="35.45" height="20" as="geometry" />
        </mxCell>
        <mxCell id="mr_CGQu-zEkENaeuJOmH-56" value="" style="sketch=0;outlineConnect=0;fontColor=#232F3E;gradientColor=none;fillColor=#DD344C;strokeColor=none;dashed=0;verticalLabelPosition=bottom;verticalAlign=top;align=center;html=1;fontSize=12;fontStyle=0;aspect=fixed;pointerEvents=1;shape=mxgraph.aws4.role;" vertex="1" parent="mr_CGQu-zEkENaeuJOmH-63">
          <mxGeometry x="950" y="564" width="35.45" height="20" as="geometry" />
        </mxCell>
        <mxCell id="mr_CGQu-zEkENaeuJOmH-58" value="2" style="rounded=1;whiteSpace=wrap;html=1;fillColor=#007CBD;strokeColor=none;fontColor=#FFFFFF;fontStyle=1;fontSize=22;aspect=fixed;" vertex="1" parent="mr_CGQu-zEkENaeuJOmH-63">
          <mxGeometry x="330" y="385.5" width="30" height="28.5" as="geometry" />
        </mxCell>
        <mxCell id="mr_CGQu-zEkENaeuJOmH-59" value="3" style="rounded=1;whiteSpace=wrap;html=1;fillColor=#007CBD;strokeColor=none;fontColor=#FFFFFF;fontStyle=1;fontSize=22;aspect=fixed;" vertex="1" parent="mr_CGQu-zEkENaeuJOmH-63">
          <mxGeometry x="420" y="644" width="30" height="28.5" as="geometry" />
        </mxCell>
        <mxCell id="mr_CGQu-zEkENaeuJOmH-60" value="6" style="rounded=1;whiteSpace=wrap;html=1;fillColor=#007CBD;strokeColor=none;fontColor=#FFFFFF;fontStyle=1;fontSize=22;aspect=fixed;" vertex="1" parent="mr_CGQu-zEkENaeuJOmH-63">
          <mxGeometry x="850" y="650" width="30" height="28.5" as="geometry" />
        </mxCell>
        <mxCell id="mr_CGQu-zEkENaeuJOmH-61" value="7" style="rounded=1;whiteSpace=wrap;html=1;fillColor=#007CBD;strokeColor=none;fontColor=#FFFFFF;fontStyle=1;fontSize=22;aspect=fixed;" vertex="1" parent="mr_CGQu-zEkENaeuJOmH-63">
          <mxGeometry x="960" y="644" width="30" height="28.5" as="geometry" />
        </mxCell>
        <mxCell id="rJDtlgSixLLEbbWDWp3H-20" value="&lt;font color=&quot;#5e5e5e&quot;&gt;Olist Store&lt;/font&gt;" style="points=[[0,0],[0.25,0],[0.5,0],[0.75,0],[1,0],[1,0.25],[1,0.5],[1,0.75],[1,1],[0.75,1],[0.5,1],[0.25,1],[0,1],[0,0.75],[0,0.5],[0,0.25]];outlineConnect=0;gradientColor=none;html=1;whiteSpace=wrap;fontSize=12;fontStyle=0;container=0;pointerEvents=0;collapsible=0;recursiveResize=0;shape=mxgraph.aws4.group;grIcon=mxgraph.aws4.group_corporate_data_center;strokeColor=#7D8998;fillColor=none;verticalAlign=top;align=left;spacingLeft=30;fontColor=#5A6C86;dashed=0;" parent="mr_CGQu-zEkENaeuJOmH-63" vertex="1">
          <mxGeometry width="1050" height="984" as="geometry" />
        </mxCell>
        <mxCell id="dZuX1vutf1IF2mnfki8U-1" value="&lt;h1 style=&quot;margin-top: 0px;&quot;&gt;&lt;font color=&quot;#5e5e5e&quot;&gt;&lt;span style=&quot;font-size: 20px;&quot;&gt;ETL Pipeline for Olist Store Dataset&lt;/span&gt;&lt;/font&gt;&lt;/h1&gt;" style="text;html=1;whiteSpace=wrap;overflow=hidden;rounded=0;movable=1;resizable=1;rotatable=1;deletable=1;editable=1;locked=0;connectable=1;" parent="mr_CGQu-zEkENaeuJOmH-63" vertex="1">
          <mxGeometry x="20" y="44" width="450" height="42" as="geometry" />
        </mxCell>
      </root>
    </mxGraphModel>
  </diagram>
</mxfile>
